name C:\Users\Nicos\Documents\OpenSimProjects\SprintingProject\Study1\PredictiveResults\IC_pred_Sprinting_optimum_26-October-2023__23-37-47___IKTD_Minus_4_p02_maxVel_01.mot
datacolumns 38
datarows 7
range 0.05600000 0.06286902
endheader
                time	/jointset/ground_pelvis/pelvis_tilt/value	/jointset/ground_pelvis/pelvis_list/value	/jointset/ground_pelvis/pelvis_rotation/value	/jointset/ground_pelvis/pelvis_tx/value	/jointset/ground_pelvis/pelvis_ty/value	/jointset/ground_pelvis/pelvis_tz/value	/jointset/hip_r/hip_flexion_r/value	/jointset/hip_r/hip_adduction_r/value	/jointset/hip_r/hip_rotation_r/value	/jointset/knee_r/knee_angle_r/value	/jointset/ankle_r/ankle_angle_r/value	/jointset/subtalar_r/subtalar_angle_r/value	/jointset/mtp_r/mtp_angle_r/value	/jointset/hip_l/hip_flexion_l/value	/jointset/hip_l/hip_adduction_l/value	/jointset/hip_l/hip_rotation_l/value	/jointset/knee_l/knee_angle_l/value	/jointset/ankle_l/ankle_angle_l/value	/jointset/subtalar_l/subtalar_angle_l/value	/jointset/mtp_l/mtp_angle_l/value	/jointset/back/lumbar_extension/value	/jointset/back/lumbar_bending/value	/jointset/back/lumbar_rotation/value	/jointset/acromial_r/arm_flex_r/value	/jointset/acromial_r/arm_add_r/value	/jointset/acromial_r/arm_rot_r/value	/jointset/elbow_r/elbow_flex_r/value	/jointset/radioulnar_r/pro_sup_r/value	/jointset/radius_hand_r/wrist_flex_r/value	/jointset/radius_hand_r/wrist_dev_r/value	/jointset/acromial_l/arm_flex_l/value	/jointset/acromial_l/arm_add_l/value	/jointset/acromial_l/arm_rot_l/value	/jointset/elbow_l/elbow_flex_l/value	/jointset/radioulnar_l/pro_sup_l/value	/jointset/radius_hand_l/wrist_flex_l/value	/jointset/radius_hand_l/wrist_dev_l/value	
          0.05600000	         -8.05841783	         -3.29411441	         -6.52764961	          0.00000000	          0.99424626	          0.30749054	         34.96924881	          2.75871202	          0.29554877	        -17.34176849	        -21.71172925	        -16.29175608	         -1.05347180	         31.96239467	        -10.46249974	          1.78963911	       -118.53295328	         -7.91834076	        -19.71408756	         -3.54915504	        -17.05922634	          7.65400431	         -3.07576292	         -6.09382115	        -25.35567983	        -14.23322569	        104.35129367	         79.56919274	        -23.37888552	          5.15548865	         -0.45028241	        -19.09224312	        -12.10993387	         73.51448869	         84.95135511	        -18.37224146	          5.53259732	
          0.05664747	         -8.13346195	         -3.20424718	         -6.77313990	          0.00777059	          0.99374235	          0.30762198	         34.64309020	          2.76111760	          0.29385470	        -17.19321175	        -21.17542957	        -15.76519230	         -0.81646824	         32.43345170	        -10.47934466	          1.65972199	       -118.85288078	         -7.72992948	        -19.76779320	         -3.35821617	        -16.92796558	          7.55377532	         -2.86836479	         -5.13028991	        -25.26251676	        -14.15672311	        104.62677812	         79.86198879	        -23.29181761	          5.17097615	         -0.95137512	        -18.85549762	        -11.84815423	         73.38616107	         84.68034531	        -18.27093755	          5.58091020	
          0.05869319	         -8.36581254	         -2.90821450	         -7.55696469	          0.03235412	          0.99206114	          0.30804099	         33.60401506	          2.75342439	          0.37505792	        -16.75173704	        -19.40476946	        -14.33703081	         -0.10411933	         33.92790129	        -10.54637792	          1.24585556	       -119.84835567	         -7.15880728	        -19.92983566	         -2.93386678	        -16.50473160	          7.23064203	         -2.19248573	         -2.08719721	        -24.94272530	        -13.91412288	        105.46666573	         80.92320322	        -22.99357667	          5.20439404	         -2.53988069	        -18.10456826	        -10.98231259	         73.05923318	         83.79741151	        -17.96717252	          5.78835196	
          0.06017582	         -8.52764408	         -2.68519127	         -8.13198021	          0.05020286	          0.99076335	          0.30834648	         32.84155538	          2.73315197	          0.50836284	        -16.47022456	        -18.05847867	        -13.52824988	          0.48090587	         35.01405369	        -10.61137552	          0.94464591	       -120.55462733	         -6.76735264	        -20.04217841	         -2.79455906	        -16.19273833	          6.99380062	         -1.68210112	          0.11236466	        -24.68935579	        -13.74325745	        106.05627488	         81.76674584	        -22.76455515	          5.22768926	         -3.69708519	        -17.55670488	        -10.32370921	         72.88827601	         83.19547174	        -17.75250587	          5.96031245	
          0.06017582	         -8.52764408	         -2.68519127	         -8.13198021	          0.05020286	          0.99076335	          0.30834648	         32.84155538	          2.73315197	          0.50836284	        -16.47022456	        -18.05847867	        -13.52824988	          0.48090587	         35.01405369	        -10.61137552	          0.94464591	       -120.55462733	         -6.76735264	        -20.04217841	         -2.79455906	        -16.19273833	          6.99380062	         -1.68210112	          0.11236466	        -24.68935579	        -13.74325745	        106.05627488	         81.76674584	        -22.76455515	          5.22768926	         -3.69708519	        -17.55670488	        -10.32370921	         72.88827601	         83.19547174	        -17.75250587	          5.96031245	
          0.06082329	         -8.59605675	         -2.58630366	         -8.38488678	          0.05800619	          0.99017731	          0.30848012	         32.50574641	          2.72042905	          0.58423421	        -16.36025718	        -17.45834148	        -13.23560383	          0.75486305	         35.48838928	        -10.64496364	          0.81303630	       -120.85881429	         -6.60290053	        -20.09125450	         -2.76242974	        -16.05588019	          6.89044320	         -1.45339755	          1.07020472	        -24.57377139	        -13.67109812	        106.31117668	         82.13281896	        -22.66452725	          5.23889705	         -4.20413482	        -17.31641134	        -10.02915185	         72.82909655	         82.94781420	        -17.65832070	          6.03712329	
          0.06286902	         -8.80393077	         -2.26970974	         -9.18820516	          0.08269872	          0.98824818	          0.30889894	         31.43701633	          2.66136797	          0.87807801	        -16.09373145	        -15.38899273	        -12.43137891	          1.91615242	         36.98841499	        -10.77264969	          0.40145732	       -121.80287758	         -6.11631655	        -20.25174243	         -2.52810197	        -15.62019534	          6.56732554	         -0.70841617	          4.07956129	        -24.19117862	        -13.45913563	        107.11219391	         83.22825419	        -22.36079944	          5.25464496	         -5.81531483	        -16.55718211	         -9.06799893	         72.70846958	         82.18278893	        -17.35981260	          6.31218986	
